<svg width="105" height="105" viewBox="0 0 105 105" fill="none" xmlns="http://www.w3.org/2000/svg">
<path d="M89.2275 91.0481V26.6741V26.6749C89.1882 26.0845 88.8846 25.5438 88.4023 25.2017L67.5479 5.91881C67.1827 5.28756 66.5162 4.89262 65.788 4.875H25.2748C20.0332 4.875 15.7739 8.94621 15.7739 13.9505V91.0476C15.7739 96.0519 20.0334 100.123 25.2748 100.123H79.7271C84.9693 100.123 89.228 96.0519 89.228 91.0476L89.2275 91.0481ZM67.6348 10.4237L83.3585 24.8528H69.9965C68.7107 24.8528 67.6356 23.9852 67.6356 22.8188L67.6348 10.4237ZM85.9981 91.0481C85.9989 94.2709 83.1879 96.8945 79.7264 96.8945H25.274C21.8125 96.8945 19.0015 94.2709 19.0015 91.0473V13.9502C19.0015 10.7266 21.8125 8.10385 25.274 8.10385H64.4071V22.819C64.4071 25.7654 66.9305 28.0822 69.9971 28.0822L85.9995 28.0814L85.9981 91.0481Z" fill="white"/>
<path d="M26.4673 64.8085C26.4673 65.2363 26.6371 65.6473 26.9399 65.9501C27.2427 66.2529 27.6537 66.4227 28.0815 66.4227H76.9167C77.8083 66.4227 78.5309 65.7001 78.5309 64.8085C78.5309 63.9169 77.8083 63.1943 76.9167 63.1943H28.0815C27.1899 63.1943 26.4673 63.9169 26.4673 64.8085Z" fill="white"/>
<path d="M76.9167 71.2666H28.0815C27.1899 71.2666 26.4673 71.9892 26.4673 72.8808C26.4673 73.7724 27.1899 74.495 28.0815 74.495H76.9167C77.8083 74.495 78.5309 73.7724 78.5309 72.8808C78.5309 71.9892 77.8083 71.2666 76.9167 71.2666Z" fill="white"/>
<path d="M60.3709 79.3379H28.0834C27.1918 79.3379 26.4692 80.0605 26.4692 80.9521C26.4692 81.8437 27.1918 82.5663 28.0834 82.5663H60.3709C61.2625 82.5663 61.9851 81.8437 61.9851 80.9521C61.9851 80.0605 61.2625 79.3379 60.3709 79.3379Z" fill="white"/>
<path d="M33.0218 47.0995L31.7649 54.452C31.6615 55.0576 31.9115 55.6696 32.409 56.0309C32.9064 56.3914 33.5657 56.4387 34.1097 56.1519L40.6826 52.6848L47.2564 56.1519C47.8003 56.4387 48.4596 56.3922 48.9571 56.0309C49.4546 55.6704 49.7045 55.0584 49.6012 54.452L48.3443 47.0995L53.6667 41.8932V41.894C54.1057 41.4646 54.2627 40.8229 54.0728 40.2398C53.883 39.6558 53.3783 39.2304 52.7703 39.1423L45.4194 38.0704L42.1318 31.3844C41.8603 30.8325 41.2979 30.4824 40.6827 30.4824C40.0674 30.4824 39.5059 30.8325 39.2343 31.3844L35.9451 38.0704L28.5942 39.1423C27.987 39.2304 27.4823 39.6558 27.2925 40.2398C27.1026 40.8238 27.2596 41.4646 27.6986 41.894L33.0218 47.0995ZM37.2523 41.1426C37.7787 41.0665 38.2337 40.7348 38.4684 40.2582L40.6826 35.7553L42.8977 40.2582C43.1324 40.7348 43.5874 41.0665 44.1129 41.1426L49.0773 41.866L45.482 45.3827C45.1031 45.7536 44.9301 46.2863 45.0198 46.8094L45.8673 51.7682L41.4372 49.4313V49.4305C40.9654 49.1822 40.4022 49.1822 39.9304 49.4305L35.5003 51.7674L36.3478 46.8086V46.8094C36.4368 46.2863 36.2645 45.7536 35.8856 45.3827L32.2896 41.8666L37.2523 41.1426Z" fill="white"/>
</svg>
