<svg width="20" height="20" viewBox="0 0 20 20" fill="none" xmlns="http://www.w3.org/2000/svg">
<path d="M15.625 2.18751H12.9273C12.549 1.79242 12.0946 1.47801 11.5915 1.26321C11.0884 1.04842 10.547 0.937683 10 0.937683C9.45297 0.937683 8.9116 1.04842 8.40851 1.26321C7.90541 1.47801 7.451 1.79242 7.07266 2.18751H4.375C3.9606 2.18751 3.56317 2.35213 3.27015 2.64516C2.97712 2.93818 2.8125 3.33561 2.8125 3.75001V16.875C2.8125 17.2894 2.97712 17.6868 3.27015 17.9799C3.56317 18.2729 3.9606 18.4375 4.375 18.4375H15.625C16.0394 18.4375 16.4368 18.2729 16.7299 17.9799C17.0229 17.6868 17.1875 17.2894 17.1875 16.875V3.75001C17.1875 3.33561 17.0229 2.93818 16.7299 2.64516C16.4368 2.35213 16.0394 2.18751 15.625 2.18751ZM12.1648 4.68751H7.83516C7.91063 4.1672 8.17097 3.69148 8.56853 3.34743C8.96608 3.00338 9.47425 2.81403 10 2.81403C10.5258 2.81403 11.0339 3.00338 11.4315 3.34743C11.829 3.69148 12.0894 4.1672 12.1648 4.68751ZM15.3125 16.5625H4.6875V4.06251H6.04766C5.97472 4.36968 5.93776 4.6843 5.9375 5.00001V5.62501C5.9375 5.87365 6.03627 6.11211 6.21209 6.28792C6.3879 6.46374 6.62636 6.56251 6.875 6.56251H13.125C13.3736 6.56251 13.6121 6.46374 13.7879 6.28792C13.9637 6.11211 14.0625 5.87365 14.0625 5.62501V5.00001C14.0622 4.6843 14.0253 4.36968 13.9523 4.06251H15.3125V16.5625Z" fill="#262626"/>
</svg>
