<svg width="24" height="24" viewBox="0 0 24 24" fill="none" xmlns="http://www.w3.org/2000/svg">
<path d="M9.75 16.1719H14.25C14.5359 16.1719 14.8105 16.2851 15.0127 16.4873C15.2149 16.6895 15.3281 16.9641 15.3281 17.25C15.3281 17.5359 15.2149 17.8105 15.0127 18.0127C14.8105 18.2149 14.5359 18.3281 14.25 18.3281H9.75C9.46406 18.3281 9.18949 18.2149 8.9873 18.0127C8.78512 17.8105 8.67188 17.5359 8.67188 17.25C8.67188 16.9641 8.78512 16.6895 8.9873 16.4873C9.18949 16.2851 9.46406 16.1719 9.75 16.1719ZM6 11.6719H18C18.2859 11.6719 18.5605 11.7851 18.7627 11.9873C18.9649 12.1895 19.0781 12.4641 19.0781 12.75C19.0781 13.0359 18.9649 13.3105 18.7627 13.5127C18.5605 13.7149 18.2859 13.8281 18 13.8281H6C5.71406 13.8281 5.43949 13.7149 5.2373 13.5127C5.03512 13.3105 4.92188 13.0359 4.92188 12.75C4.92188 12.4641 5.03512 12.1895 5.2373 11.9873C5.43949 11.7851 5.71406 11.6719 6 11.6719ZM2.25 7.17188H21.75C22.0359 7.17188 22.3105 7.28512 22.5127 7.4873C22.7149 7.68949 22.8281 7.96406 22.8281 8.25C22.8281 8.53594 22.7149 8.81051 22.5127 9.0127C22.3105 9.21488 22.0359 9.32812 21.75 9.32812H2.25C1.96406 9.32812 1.68949 9.21488 1.4873 9.0127C1.28512 8.81051 1.17188 8.53594 1.17188 8.25C1.17188 7.96406 1.28512 7.68949 1.4873 7.4873C1.66426 7.31035 1.89669 7.20123 2.14355 7.17676L2.25 7.17188Z" fill="#475569" stroke="#475569" stroke-width="0.09375"/>
</svg>
