<svg width="20" height="20" viewBox="0 0 20 20" fill="none" xmlns="http://www.w3.org/2000/svg">
<path d="M19.2298 8.8953L17.9798 7.6453C17.7481 7.41381 17.4495 7.26099 17.1262 7.20842C16.8029 7.15584 16.4713 7.20619 16.1782 7.35233L12.647 3.82108C12.7932 3.52805 12.8437 3.19648 12.7912 2.87321C12.7388 2.54994 12.5861 2.25131 12.3548 2.01952L11.1048 0.769521C10.8118 0.476598 10.4144 0.312042 10.0001 0.312042C9.58577 0.312042 9.18842 0.476598 8.8954 0.769521L3.8954 5.76952C3.60248 6.06253 3.43792 6.45989 3.43792 6.87421C3.43792 7.28853 3.60248 7.68588 3.8954 7.9789L5.1454 9.2289C5.37638 9.45988 5.67393 9.61267 5.99624 9.66578C6.31855 9.71889 6.6494 9.66966 6.94228 9.52499L2.29384 14.1703C1.82495 14.6392 1.56152 15.2752 1.56152 15.9383C1.56152 16.6014 1.82495 17.2373 2.29384 17.7062C2.76273 18.1751 3.39869 18.4386 4.06181 18.4386C4.72493 18.4386 5.36088 18.1751 5.82978 17.7062L10.4688 13.0633C10.3255 13.3558 10.2771 13.6857 10.3304 14.0071C10.3838 14.3284 10.5363 14.625 10.7665 14.8555L12.0165 16.1055C12.1616 16.2506 12.3339 16.3658 12.5235 16.4443C12.7131 16.5229 12.9163 16.5633 13.1216 16.5633C13.3268 16.5633 13.5301 16.5229 13.7197 16.4443C13.9093 16.3658 14.0816 16.2506 14.2267 16.1055L19.2267 11.1055C19.3718 10.9604 19.487 10.7881 19.5655 10.5985C19.6441 10.4089 19.6845 10.2056 19.6845 10.0004C19.6845 9.79514 19.6441 9.5919 19.5655 9.40229C19.487 9.21268 19.3718 9.0404 19.2267 8.8953H19.2298ZM6.25009 7.6828L5.44072 6.87499L10.0001 2.3164L10.8079 3.12499L6.25009 7.6828ZM4.50322 16.3805C4.38594 16.4976 4.22692 16.5634 4.06114 16.5633C3.89536 16.5633 3.7364 16.4973 3.61923 16.3801C3.50206 16.2628 3.43627 16.1038 3.43635 15.938C3.43642 15.7722 3.50235 15.6133 3.61962 15.4961L8.26962 10.8461L9.15322 11.7305L4.50322 16.3805ZM11.7454 11.6703L8.32978 8.25468L11.3767 5.2078L14.7923 8.62343L11.7454 11.6703ZM13.1243 14.5609L12.3165 13.75L16.8751 9.19218L17.6829 9.99999L13.1243 14.5609Z" fill="#262626"/>
</svg>
