<svg width="20" height="20" viewBox="0 0 20 20" fill="none" xmlns="http://www.w3.org/2000/svg">
<path d="M9.7796 12.261C10.5648 11.601 11.128 10.7154 11.3929 9.72449C11.6577 8.73354 11.6114 7.68511 11.2601 6.72138C10.9089 5.75765 10.2698 4.92526 9.42942 4.3371C8.58906 3.74894 7.58814 3.43347 6.56241 3.43347C5.53667 3.43347 4.53575 3.74894 3.69539 4.3371C2.85504 4.92526 2.2159 5.75765 1.86467 6.72138C1.51344 7.68511 1.46711 8.73354 1.73196 9.72449C1.99681 10.7154 2.56002 11.601 3.34522 12.261C2.11911 12.8154 1.05656 13.6764 0.260065 14.761C0.112952 14.9614 0.0515003 15.2121 0.0892274 15.4579C0.126954 15.7037 0.26077 15.9244 0.461236 16.0715C0.661703 16.2186 0.912399 16.2801 1.15817 16.2423C1.40395 16.2046 1.62467 16.0708 1.77178 15.8703C2.32314 15.1173 3.04425 14.5049 3.87661 14.0827C4.70896 13.6605 5.62911 13.4405 6.56241 13.4405C7.4957 13.4405 8.41586 13.6605 9.24821 14.0827C10.0806 14.5049 10.8017 15.1173 11.353 15.8703C11.5001 16.0709 11.7209 16.2048 11.9668 16.2426C12.2126 16.2804 12.4634 16.219 12.664 16.0719C12.8645 15.9248 12.9985 15.704 13.0363 15.4582C13.0741 15.2123 13.0126 14.9615 12.8655 14.761C12.0686 13.6765 11.0058 12.8156 9.7796 12.261ZM3.43741 8.43753C3.43741 7.81946 3.62069 7.21527 3.96407 6.70137C4.30744 6.18747 4.7955 5.78693 5.36652 5.5504C5.93754 5.31388 6.56587 5.25199 7.17207 5.37257C7.77826 5.49315 8.33508 5.79078 8.77212 6.22782C9.20916 6.66486 9.50678 7.22168 9.62736 7.82787C9.74794 8.43406 9.68606 9.06239 9.44953 9.63341C9.21301 10.2044 8.81247 10.6925 8.29856 11.0359C7.78466 11.3792 7.18047 11.5625 6.56241 11.5625C5.73361 11.5625 4.93875 11.2333 4.3527 10.6472C3.76665 10.0612 3.43741 9.26633 3.43741 8.43753ZM19.539 16.068C19.4397 16.1409 19.3271 16.1936 19.2075 16.223C19.0879 16.2523 18.9636 16.2579 18.8419 16.2392C18.7202 16.2206 18.6033 16.1781 18.498 16.1143C18.3926 16.0505 18.3009 15.9665 18.228 15.8672C17.6753 15.1156 16.9539 14.5043 16.1219 14.0823C15.2898 13.6603 14.3703 13.4394 13.4374 13.4375C13.1888 13.4375 12.9503 13.3388 12.7745 13.1629C12.5987 12.9871 12.4999 12.7487 12.4999 12.5C12.4999 12.2514 12.5987 12.0129 12.7745 11.8371C12.9503 11.6613 13.1888 11.5625 13.4374 11.5625C13.8816 11.5617 14.3205 11.4663 14.7248 11.2825C15.1292 11.0987 15.4898 10.8308 15.7824 10.4967C16.0751 10.1626 16.2932 9.76997 16.4222 9.34494C16.5512 8.91991 16.5881 8.47226 16.5304 8.03185C16.4727 7.59144 16.3218 7.16838 16.0878 6.79087C15.8537 6.41337 15.5419 6.09009 15.1731 5.8426C14.8043 5.59511 14.3869 5.42908 13.9489 5.3556C13.5108 5.28211 13.0621 5.30285 12.6327 5.41643C12.5128 5.45113 12.3871 5.46152 12.2631 5.447C12.1391 5.43248 12.0193 5.39334 11.9106 5.33187C11.8019 5.2704 11.7066 5.18785 11.6303 5.08905C11.554 4.99026 11.4982 4.87721 11.4661 4.75655C11.434 4.63588 11.4264 4.51003 11.4437 4.38638C11.4609 4.26273 11.5027 4.14377 11.5665 4.03648C11.6304 3.92918 11.715 3.83572 11.8154 3.76158C11.9159 3.68744 12.0301 3.63411 12.1515 3.60471C13.2495 3.31378 14.4138 3.40539 15.4528 3.86446C16.4919 4.32353 17.3436 5.1227 17.8678 6.13041C18.392 7.13811 18.5575 8.29428 18.337 9.40858C18.1165 10.5229 17.5231 11.5289 16.6546 12.261C17.8807 12.8154 18.9433 13.6764 19.7397 14.761C19.8858 14.9611 19.9467 15.211 19.9091 15.4559C19.8714 15.7008 19.7384 15.9209 19.539 16.068Z" fill="#262626"/>
</svg>
