<svg width="20" height="20" viewBox="0 0 20 20" fill="none" xmlns="http://www.w3.org/2000/svg">
<path d="M19.6876 7.24067C19.6882 7.03541 19.648 6.83207 19.5694 6.64245C19.4908 6.45283 19.3754 6.28068 19.2298 6.13598L13.8642 0.769576C13.7191 0.624417 13.5468 0.509268 13.3572 0.430705C13.1676 0.352143 12.9644 0.311707 12.7591 0.311707C12.5539 0.311707 12.3506 0.352143 12.161 0.430705C11.9714 0.509268 11.7991 0.624417 11.654 0.769576L9.48059 2.94301L5.00872 4.62036C4.7519 4.71659 4.52494 4.87872 4.35064 5.09046C4.17634 5.3022 4.06084 5.55609 4.01575 5.82661L2.20012 16.7188C2.17739 16.8533 2.18428 16.9911 2.2203 17.1226C2.25632 17.2542 2.32061 17.3763 2.40868 17.4804C2.49675 17.5846 2.60649 17.6682 2.73023 17.7256C2.85397 17.783 2.98874 17.8126 3.12512 17.8125C3.17747 17.8128 3.22974 17.8086 3.28137 17.8L14.1759 15.9836C14.4461 15.9381 14.6997 15.8225 14.9114 15.6484C15.123 15.4743 15.2853 15.2478 15.3822 14.9915L17.0587 10.5188L19.2322 8.34536C19.3774 8.20049 19.4924 8.02826 19.5706 7.83864C19.6487 7.64902 19.6885 7.44577 19.6876 7.24067ZM13.6876 14.1641L5.8595 15.4688L8.43762 12.8907C9.00425 13.1465 9.64265 13.1954 10.2416 13.029C10.8406 12.8625 11.3623 12.4913 11.7157 11.9798C12.0692 11.4684 12.232 10.8492 12.1759 10.23C12.1198 9.61087 11.8484 9.03101 11.4088 8.59141C10.9692 8.15181 10.3893 7.88033 9.77015 7.82424C9.151 7.76816 8.53179 7.93102 8.02036 8.28446C7.50892 8.63791 7.13765 9.15954 6.97122 9.75853C6.80478 10.3575 6.85371 10.9959 7.1095 11.5625L4.53137 14.1407L5.83606 6.31254L9.76575 4.83911L15.1603 10.2344L13.6876 14.1641ZM8.75012 10.4688C8.75012 10.3143 8.79594 10.1632 8.88179 10.0348C8.96763 9.90628 9.08965 9.80614 9.2324 9.74701C9.37516 9.68788 9.53224 9.67241 9.68379 9.70256C9.83534 9.7327 9.97454 9.80711 10.0838 9.91637C10.1931 10.0256 10.2675 10.1648 10.2976 10.3164C10.3278 10.4679 10.3123 10.625 10.2532 10.7678C10.194 10.9105 10.0939 11.0325 9.96541 11.1184C9.83694 11.2042 9.68589 11.25 9.53137 11.25C9.32417 11.25 9.12546 11.1677 8.97895 11.0212C8.83243 10.8747 8.75012 10.676 8.75012 10.4688ZM16.2501 8.67192L11.3282 3.75004L12.7611 2.31723L17.6829 7.23911L16.2501 8.67192Z" fill="#262626"/>
</svg>
