<svg width="34" height="40" viewBox="0 0 34 40" fill="none" xmlns="http://www.w3.org/2000/svg">
<path d="M25.1522 11.6371C25.1522 13.9382 26.9174 15.5452 29.4446 15.5452C31.9872 15.5452 33.7632 13.9382 33.7632 11.6371H33.7635C33.7635 11.3792 33.6081 11.1465 33.3697 11.0478L30.0688 2.19847C30.0666 2.19246 30.0637 2.18676 30.0609 2.18106C30.0561 2.16967 30.0517 2.15859 30.0463 2.14751C30.0419 2.13865 30.0374 2.12978 30.0327 2.12124C30.0279 2.11238 30.0226 2.10256 30.0169 2.09338C30.0108 2.08421 30.0055 2.07534 29.9998 2.06648C29.9941 2.05762 29.9884 2.0497 29.9824 2.04179C29.9763 2.03356 29.9694 2.02502 29.9627 2.0171C29.9561 2.00887 29.9494 2.00128 29.9425 1.99305C29.9355 1.98513 29.9289 1.9788 29.9222 1.97184C29.9153 1.96487 29.9064 1.95601 29.8982 1.94873C29.8915 1.94272 29.8846 1.9367 29.8776 1.93101C29.8684 1.92341 29.8592 1.91613 29.8497 1.90885C29.8428 1.90379 29.8355 1.89904 29.8285 1.89397C29.8187 1.88733 29.8086 1.88068 29.7981 1.87435C29.7902 1.8696 29.7823 1.86549 29.7741 1.86106C29.764 1.85567 29.7538 1.85029 29.7434 1.84523C29.7342 1.8408 29.7244 1.83732 29.7149 1.83288C29.7079 1.83004 29.701 1.82655 29.6937 1.82371C29.6912 1.82276 29.6883 1.82212 29.6858 1.82117C29.6756 1.81737 29.6652 1.81453 29.6551 1.81136C29.6449 1.8082 29.6351 1.80503 29.625 1.8025C29.6149 1.79997 29.606 1.79838 29.5965 1.79648C29.5854 1.79427 29.5744 1.79174 29.5633 1.79015C29.5547 1.78889 29.5459 1.78825 29.537 1.7873C29.525 1.78604 29.513 1.78446 29.5012 1.78414C29.4927 1.78382 29.4841 1.78414 29.4756 1.78414C29.4633 1.78414 29.4512 1.78382 29.4389 1.78414C29.4307 1.78477 29.4221 1.78572 29.4136 1.78667C29.4012 1.78794 29.3889 1.78889 29.3769 1.79047C29.3689 1.79174 29.3604 1.79364 29.3522 1.79522C29.342 1.79712 29.3316 1.7987 29.3215 1.80092H22.7505C22.6324 1.12292 22.2004 0.541143 21.5857 0.231932C20.971 -0.0773107 20.2462 -0.0773107 19.6315 0.231932C19.0169 0.541175 18.5848 1.12294 18.4668 1.80092H11.8955C11.8876 1.79902 11.8797 1.79775 11.8711 1.79617C11.8603 1.79395 11.8499 1.79174 11.8391 1.79015C11.8303 1.78889 11.8211 1.78825 11.8119 1.7873C11.8002 1.78604 11.7888 1.78477 11.7771 1.78414C11.7686 1.78382 11.76 1.78414 11.7515 1.78414C11.7391 1.78414 11.7271 1.78382 11.7147 1.78414C11.7068 1.78477 11.6983 1.78572 11.6901 1.78636C11.6774 1.78762 11.6647 1.78857 11.6524 1.79047C11.6445 1.79174 11.6369 1.79332 11.629 1.7949C11.616 1.79743 11.603 1.79965 11.5904 1.80281C11.5828 1.80471 11.5755 1.80725 11.5682 1.80946C11.5552 1.81326 11.5422 1.81706 11.5299 1.82149C11.5277 1.82244 11.5258 1.82276 11.5236 1.82371C11.5179 1.82592 11.5122 1.82877 11.5065 1.83099C11.4948 1.83573 11.4834 1.84048 11.472 1.84586C11.4631 1.84998 11.4549 1.85441 11.4463 1.85916C11.4365 1.86422 11.427 1.8696 11.4175 1.87498C11.408 1.88068 11.4001 1.88606 11.3913 1.89176C11.3827 1.89746 11.3742 1.90347 11.3659 1.90948C11.3577 1.9155 11.3495 1.92214 11.3413 1.92879C11.333 1.93544 11.3254 1.94208 11.3172 1.94905C11.3093 1.95601 11.3026 1.96266 11.2957 1.96962C11.2887 1.97659 11.2802 1.98545 11.2729 1.99368C11.2656 2.00159 11.2605 2.00792 11.2545 2.0152C11.2472 2.02375 11.2403 2.03261 11.2333 2.04179C11.2276 2.04939 11.2226 2.05698 11.2175 2.0649C11.2112 2.07408 11.2051 2.08357 11.1995 2.09307C11.1938 2.10256 11.1893 2.11079 11.1846 2.11997C11.1798 2.12883 11.1751 2.13801 11.1706 2.14719C11.1656 2.15827 11.1608 2.16935 11.1564 2.18043C11.1539 2.18644 11.151 2.19214 11.1485 2.19815L7.84754 11.0474H7.84785C7.60952 11.1462 7.4541 11.3788 7.4541 11.6368C7.4541 13.9379 9.21932 15.5449 11.7464 15.5449C14.2894 15.5449 16.065 13.9379 16.065 11.6368H16.0654C16.065 11.3671 15.8951 11.1266 15.6412 11.0364L12.6717 3.07645H18.6305C18.8843 3.63132 19.3553 4.05732 19.9326 4.25422V15.1965H19.2492H19.2495C18.7504 15.2003 18.2658 15.3655 17.8682 15.6672C17.4704 15.9688 17.1811 16.3911 17.043 16.8709H17.037C16.874 16.8642 16.7154 16.9256 16.5993 17.0402C16.4834 17.1551 16.4198 17.3128 16.4242 17.4758V19.4116C16.4182 19.5794 16.4796 19.7424 16.5949 19.8643C16.7101 19.9861 16.8693 20.0567 17.037 20.0602H24.1805C24.3486 20.0567 24.5081 19.9865 24.624 19.8646C24.7395 19.7427 24.8015 19.5797 24.7962 19.4116V17.4758C24.8 17.3121 24.736 17.1545 24.6192 17.0399C24.5028 16.9253 24.3439 16.8642 24.1805 16.8709H24.1742C24.0362 16.391 23.7469 15.9688 23.349 15.6672C22.9515 15.3655 22.4668 15.2003 21.9677 15.1965H21.2084V4.25422C21.8189 4.08425 22.3235 3.65314 22.5872 3.07645H28.5459L25.5766 11.0367H25.5763C25.3222 11.1269 25.1525 11.3674 25.1522 11.6371ZM11.746 14.2405C10.5188 14.2405 9.11069 13.761 8.79444 12.2461H14.7197C14.4054 13.6813 13.0703 14.2405 11.746 14.2405ZM14.2652 10.9702H9.22681L11.7463 4.21688L14.2652 10.9702ZM23.5203 18.7843H17.6998V18.1465H23.5203V18.7843ZM21.9678 16.4721V16.4718C22.2805 16.4749 22.5742 16.6221 22.7645 16.8706H18.4525C18.6424 16.6221 18.9365 16.4753 19.2492 16.4718L21.9678 16.4721ZM21.4496 2.48956H21.4493C21.286 2.92383 20.8185 3.16186 20.3712 3.03841C19.9237 2.91497 19.6445 2.47088 19.7268 2.01411C19.8091 1.55768 20.226 1.23894 20.6881 1.27946C21.1501 1.31997 21.5053 1.70645 21.5068 2.17047C21.4676 2.25435 21.447 2.34614 21.447 2.43888C21.447 2.45597 21.4483 2.47275 21.4496 2.48952L21.4496 2.48956ZM29.4705 4.21712L31.99 10.9705H26.9517L29.4705 4.21712ZM32.4183 12.2461C32.104 13.6812 30.7689 14.2405 29.4443 14.2405C28.2171 14.2405 26.809 13.7609 26.4927 12.2461H32.4183Z" fill="black"/>
<path d="M0.606211 39.1947H5.87908C6.24182 39.1811 6.53111 38.8867 6.53871 38.5237V35.9231L9.50161 35.335C10.4379 35.1849 11.0212 35.1261 12.0116 35.1713L19.892 35.567C22.7179 35.6968 25.4707 34.6953 27.6439 32.7487L33.0991 27.861C33.1038 27.8568 33.1079 27.8524 33.1127 27.8483H33.1124C33.6169 27.3694 33.9287 26.7224 33.9891 26.0296C34.0499 25.3367 33.8549 24.6454 33.4412 24.0865L33.4263 24.0624C33.4156 24.045 33.4042 24.0282 33.3918 24.0118H33.3915C32.9573 23.4322 32.3018 23.059 31.5817 22.9812C30.886 22.9099 30.1922 23.1347 29.6705 23.6009C28.2626 24.8353 26.1818 26.6506 24.6809 27.9585H24.6806C23.7174 28.8036 22.4931 29.2923 21.2125 29.3426L17.4671 29.4673H17.4601C17.2778 29.4721 17.1081 29.3733 17.0227 29.2122C17.0208 29.2084 17.0186 29.2097 17.0167 29.2059L16.5963 28.4405C16.4938 28.2513 16.4868 28.0249 16.5777 27.8296C16.6426 27.6761 16.7771 27.5628 16.9394 27.5248L20.8104 26.7354C22.1215 26.4775 23.0343 25.1582 22.889 23.7323C22.7456 22.3254 21.5523 21.2526 20.2125 21.3207L15.0264 21.0915C12.963 21.0117 11.212 21.4381 9.14795 22.5162L6.53858 23.8852V23.1667C6.52814 22.8106 6.23504 22.5279 5.87896 22.5305H0.606084C0.440226 22.5314 0.282286 22.5998 0.168027 22.7197C0.0537602 22.8397 -0.00668788 23.0011 0.000588512 23.1667V38.5235C0.000588512 38.8758 0.253804 39.1945 0.606093 39.1945L0.606211 39.1947ZM6.53874 25.324L9.73873 23.6467C11.5923 22.6788 13.1572 22.2961 14.9794 22.3661L20.1918 22.5968H20.1921C20.2155 22.5978 20.2389 22.5974 20.2624 22.5959C20.9385 22.5515 21.5452 23.1178 21.6209 23.8616C21.7 24.6393 21.236 25.3518 20.5605 25.4851L16.6854 26.2754V26.2751C16.1252 26.3922 15.6548 26.7708 15.421 27.2933C15.1605 27.8564 15.1814 28.5094 15.4776 29.0548L15.8951 29.8179C16.0477 30.1091 16.2787 30.3519 16.5617 30.5187C16.845 30.6858 17.1691 30.7703 17.4977 30.763H17.5072L21.2614 30.6269H21.2617C22.8358 30.5614 24.3398 29.9578 25.5224 28.9168C27.0208 27.6111 29.1026 25.7949 30.5133 24.5583V24.5579C30.7696 24.3275 31.1112 24.2158 31.4542 24.25C31.8122 24.2883 32.1386 24.4725 32.357 24.7586L32.3697 24.7789C32.3804 24.7963 32.3918 24.8131 32.4042 24.8295H32.4038C32.6371 25.1372 32.7492 25.5199 32.7188 25.9048C32.6884 26.2897 32.5178 26.6499 32.2392 26.9173L26.791 31.7984C24.8685 33.5206 22.4376 34.4063 19.9501 34.2926L12.0672 33.8969C10.9641 33.8466 10.2893 33.915 9.27736 34.0771C9.26945 34.0783 9.27325 34.0796 9.26565 34.0812L6.53887 34.6224L6.53874 25.324ZM1.27632 23.806H5.26286L5.26318 37.9189H1.27631L1.27632 23.806Z" fill="black"/>
</svg>
