<svg width="52" height="52" viewBox="0 0 52 52" fill="none" xmlns="http://www.w3.org/2000/svg">
<path d="M39.0355 9.51043H34.195V8.81536C34.1875 8.0219 33.8689 7.26298 33.3075 6.70164C32.7465 6.13988 31.9876 5.8209 31.1941 5.81297H30.0975V5.78877C30.0975 4.32485 29.3164 2.97203 28.0488 2.24038C26.7809 1.50842 25.219 1.50842 23.9514 2.24038C22.6835 2.97194 21.9026 4.32474 21.9026 5.78877V5.81297H20.8057C20.0122 5.8209 19.2533 6.13988 18.6923 6.70164C18.1313 7.26301 17.8127 8.02195 17.8048 8.81536V9.51043H12.9643C11.8051 9.51599 10.6958 9.98174 9.87934 10.8045C9.06327 11.6274 8.60666 12.7409 8.61062 13.8999V45.9144C8.60745 47.0717 9.06488 48.1825 9.88137 49.0025C10.6978 49.8221 11.8071 50.2839 12.9643 50.2851H39.0354C40.1927 50.2839 41.3019 49.8222 42.1183 49.0025C42.9352 48.1825 43.3922 47.0716 43.3891 45.9144V13.8999C43.393 12.741 42.9368 11.6274 42.1204 10.8045C41.3039 9.98172 40.1947 9.51592 39.0355 9.51043ZM23.5015 5.78867C23.5015 4.89603 23.9775 4.07125 24.7508 3.62489C25.5236 3.17857 26.4761 3.17857 27.249 3.62489C28.0223 4.0712 28.4983 4.89604 28.4983 5.78867V5.81287H23.5016L23.5015 5.78867ZM19.404 8.81534C19.4187 8.04727 20.0376 7.42759 20.8057 7.41174H31.1945C31.9626 7.42761 32.5815 8.0473 32.5962 8.81534V13.4083H19.4042L19.404 8.81534ZM41.7904 45.9141C41.794 46.6472 41.5056 47.3518 40.9887 47.8719C40.4717 48.392 39.7687 48.6852 39.0356 48.686H12.9645C12.2314 48.6852 11.5283 48.392 11.0115 47.8719C10.4949 47.3518 10.2061 46.6472 10.2101 45.9141V13.8996C10.2057 13.1644 10.4933 12.4575 11.0099 11.9345C11.5264 11.4112 12.2294 11.1145 12.9646 11.1093H17.805V14.2427C17.805 14.6843 18.1994 15.0068 18.6409 15.0068H33.3584C33.7999 15.0068 34.1943 14.6843 34.1943 14.2427L34.1947 11.1093H39.0351C39.7703 11.1145 40.4733 11.4112 40.9898 11.9345C41.5063 12.4574 41.794 13.1643 41.79 13.8996L41.7904 45.9141Z" fill="black"/>
<path d="M15.6751 36.9933H25.7727C26.2142 36.9933 26.5721 36.6355 26.5721 36.1939C26.5721 35.7524 26.2142 35.3945 25.7727 35.3945H15.6751C15.2336 35.3945 14.8757 35.7524 14.8757 36.1939C14.8757 36.6355 15.2336 36.9933 15.6751 36.9933Z" fill="black"/>
<path d="M36.3248 40.791H15.6751C15.2336 40.791 14.8757 41.1489 14.8757 41.5904C14.8757 42.032 15.2336 42.3898 15.6751 42.3898H36.3248C36.7664 42.3898 37.1246 42.032 37.1246 41.5904C37.1246 41.1489 36.7664 40.791 36.3248 40.791Z" fill="black"/>
<path d="M19.2765 29.531C21.3577 29.531 22.8685 28.1512 22.8685 26.2505C22.8681 25.9712 22.7221 25.7121 22.4828 25.5677L20.4445 20.1031H24.3297C24.5371 20.4388 24.8402 20.7046 25.2001 20.866V29.9971H23.969C23.5275 29.9971 23.1696 30.355 23.1696 30.7965C23.1696 31.2381 23.5275 31.5959 23.969 31.5959H28.0303C28.4719 31.5959 28.8297 31.2381 28.8297 30.7965C28.8297 30.355 28.4719 29.9971 28.0303 29.9971H26.7993V20.866C27.1591 20.7046 27.4626 20.4388 27.6701 20.1031H31.5549L29.5161 25.5673V25.5677C29.2769 25.7121 29.1309 25.9712 29.1309 26.2505C29.1309 28.1822 30.6 29.531 32.703 29.531C34.7842 29.531 36.295 28.1512 36.295 26.2505C36.295 25.9819 36.1597 25.7311 35.9352 25.5832L33.4719 18.9796C33.4691 18.972 33.4651 18.9649 33.4619 18.9574C33.456 18.9431 33.4504 18.9292 33.4437 18.9153C33.4381 18.9038 33.4326 18.8931 33.4262 18.882C33.4203 18.8709 33.4139 18.8586 33.4068 18.8471C33.4 18.8356 33.3921 18.8241 33.385 18.8129C33.3774 18.8018 33.3711 18.7923 33.3635 18.7824C33.356 18.7725 33.3473 18.761 33.3386 18.7507C33.3298 18.7403 33.3223 18.7308 33.314 18.7217C33.3052 18.7126 33.2965 18.7031 33.2878 18.6943C33.279 18.6852 33.2683 18.6753 33.2576 18.6662C33.2469 18.657 33.2398 18.6507 33.2306 18.6431C33.2195 18.634 33.2084 18.6249 33.1969 18.6166C33.1878 18.6098 33.1783 18.6035 33.1688 18.5967C33.1569 18.5888 33.1449 18.5809 33.1323 18.5733C33.1219 18.567 33.1112 18.5614 33.1005 18.5555C33.0898 18.5499 33.0767 18.5428 33.064 18.5368C33.0517 18.5309 33.039 18.5257 33.0263 18.5206C33.018 18.517 33.0097 18.513 33.0013 18.5098C32.9982 18.5087 32.995 18.5079 32.9918 18.5067C32.9783 18.5019 32.9644 18.4979 32.9506 18.4936C32.939 18.49 32.9271 18.4864 32.9152 18.4837C32.9033 18.4809 32.8903 18.4781 32.8776 18.4757C32.8649 18.4733 32.851 18.4702 32.8375 18.4682C32.8264 18.4666 32.8153 18.4658 32.8042 18.4646C32.7891 18.463 32.774 18.4611 32.7597 18.4607H32.7296H32.682C32.6721 18.4607 32.6621 18.4626 32.6526 18.4634C32.6363 18.465 32.6201 18.4662 32.6042 18.4686C32.5943 18.4702 32.5852 18.4722 32.5756 18.4741C32.559 18.4773 32.5427 18.4801 32.5265 18.4841C32.5173 18.4864 32.5082 18.4896 32.4991 18.492C32.4852 18.496 32.4717 18.4995 32.4582 18.5043L27.8808 18.5039C27.7173 17.9616 27.3274 17.516 26.8116 17.282C26.2955 17.0479 25.704 17.0479 25.1879 17.282C24.6721 17.5161 24.2825 17.9616 24.1187 18.5039H19.5397C19.5286 18.4999 19.5171 18.4972 19.5055 18.494C19.494 18.4908 19.4817 18.4864 19.4698 18.4841C19.4579 18.4813 19.4448 18.4789 19.4326 18.4761C19.4203 18.4737 19.4056 18.4706 19.3925 18.4686C19.3814 18.467 19.3703 18.4662 19.3596 18.465C19.3445 18.4634 19.3294 18.4614 19.3147 18.4607H19.2842H19.2366C19.2266 18.4607 19.2167 18.4626 19.2064 18.4634C19.1901 18.465 19.1743 18.4662 19.1584 18.4686C19.1485 18.4702 19.139 18.4722 19.1294 18.4741C19.1132 18.4773 19.0969 18.4801 19.081 18.4841C19.0719 18.4864 19.0624 18.4896 19.0533 18.492C19.037 18.4968 19.0207 18.5019 19.0049 18.5075C19.0021 18.5087 18.9993 18.5091 18.9969 18.5102C18.9894 18.513 18.9831 18.5166 18.9759 18.5194C18.9612 18.5253 18.947 18.5313 18.9327 18.538C18.922 18.5432 18.9112 18.5487 18.9005 18.5547C18.8882 18.561 18.8763 18.5678 18.8644 18.5745C18.8525 18.5813 18.8426 18.5884 18.8315 18.5955C18.8208 18.6027 18.8101 18.6098 18.7998 18.6178C18.7895 18.6253 18.7791 18.6336 18.7688 18.642C18.7589 18.6503 18.749 18.6586 18.7387 18.6673C18.7288 18.6761 18.7204 18.6844 18.7117 18.6931C18.703 18.7019 18.6923 18.713 18.6831 18.7233C18.6752 18.732 18.6677 18.7411 18.6601 18.7503C18.651 18.7614 18.6423 18.7725 18.6335 18.784C18.6264 18.7935 18.62 18.803 18.6137 18.8129C18.6058 18.8245 18.5978 18.8364 18.5907 18.8487C18.5836 18.861 18.578 18.8709 18.572 18.8824C18.5661 18.8935 18.5601 18.905 18.5542 18.9165C18.5478 18.93 18.5419 18.9443 18.5363 18.9582C18.5332 18.9657 18.5296 18.9728 18.5264 18.9804L16.0639 25.5831C15.8394 25.7311 15.7041 25.9819 15.7041 26.2504C15.7045 28.1822 17.1732 29.531 19.2767 29.531L19.2765 29.531ZM32.7031 27.981C31.9929 27.981 31.2463 27.6985 30.9114 27.0991H34.5069C34.1582 27.6985 33.3877 27.981 32.703 27.981H32.7031ZM32.7229 21.5948L34.1797 25.4998H31.2665L32.7229 21.5948ZM26 18.7059C26.1479 18.7059 26.2816 18.7952 26.3384 18.932C26.3951 19.0693 26.3638 19.2268 26.259 19.3316C26.1543 19.4363 25.9964 19.4676 25.8595 19.4109C25.7227 19.3542 25.6334 19.2205 25.6334 19.0725C25.6334 18.8702 25.7976 18.7063 26 18.7059ZM19.2766 21.5953L20.733 25.4998H17.8198L19.2766 21.5953ZM21.0802 27.099C20.7319 27.6985 19.961 27.981 19.2766 27.981C18.5661 27.981 17.8198 27.6985 17.485 27.099H21.0802Z" fill="black"/>
</svg>
