<svg width="20" height="15" viewBox="0 0 20 15" fill="none" xmlns="http://www.w3.org/2000/svg">
<path d="M19.0627 8.4431C19.0627 8.69174 18.9639 8.9302 18.7881 9.10601C18.6123 9.28183 18.3738 9.3806 18.1252 9.3806H17.5002V10.0056C17.5002 10.2542 17.4014 10.4927 17.2256 10.6685C17.0498 10.8443 16.8113 10.9431 16.5627 10.9431C16.314 10.9431 16.0756 10.8443 15.8998 10.6685C15.724 10.4927 15.6252 10.2542 15.6252 10.0056V9.3806H15.0002C14.7515 9.3806 14.5131 9.28183 14.3373 9.10601C14.1615 8.9302 14.0627 8.69174 14.0627 8.4431C14.0627 8.19446 14.1615 7.956 14.3373 7.78019C14.5131 7.60437 14.7515 7.5056 15.0002 7.5056H15.6252V6.8806C15.6252 6.63196 15.724 6.3935 15.8998 6.21769C16.0756 6.04187 16.314 5.9431 16.5627 5.9431C16.8113 5.9431 17.0498 6.04187 17.2256 6.21769C17.4014 6.3935 17.5002 6.63196 17.5002 6.8806V7.5056H18.1252C18.3738 7.5056 18.6123 7.60437 18.7881 7.78019C18.9639 7.956 19.0627 8.19446 19.0627 8.4431ZM14.7806 12.84C14.9406 13.0304 15.0184 13.2766 14.9968 13.5243C14.9753 13.7721 14.8562 14.0011 14.6658 14.1611C14.4754 14.321 14.2292 14.3988 13.9815 14.3773C13.7337 14.3557 13.5047 14.2366 13.3447 14.0462C12.2752 12.7728 10.3908 11.2556 7.50018 11.2556C5.24315 11.2556 3.16737 12.2462 1.65565 14.0462C1.49569 14.2366 1.26664 14.3557 1.01889 14.3773C0.771134 14.3988 0.524972 14.321 0.334555 14.1611C0.144138 14.0011 0.0250629 13.7721 0.00352554 13.5243C-0.0180118 13.2766 0.0597524 13.0304 0.219711 12.84C1.23825 11.6098 2.54493 10.6504 4.02362 10.047C3.10411 9.32409 2.43283 8.33252 2.10319 7.21028C1.77355 6.08803 1.80195 4.89094 2.18443 3.78559C2.56691 2.68024 3.28446 1.72162 4.23721 1.04312C5.18996 0.364619 6.33052 0 7.50018 0C8.66984 0 9.8104 0.364619 10.7632 1.04312C11.7159 1.72162 12.4334 2.68024 12.8159 3.78559C13.1984 4.89094 13.2268 6.08803 12.8972 7.21028C12.5675 8.33252 11.8962 9.32409 10.9767 10.047C12.4556 10.6502 13.7623 11.6097 14.7806 12.84ZM7.50018 9.3806C8.24186 9.3806 8.96688 9.16067 9.58357 8.74861C10.2003 8.33656 10.6809 7.75089 10.9647 7.06566C11.2486 6.38044 11.3228 5.62644 11.1781 4.89901C11.0334 4.17158 10.6763 3.5034 10.1518 2.97895C9.62738 2.4545 8.9592 2.09735 8.23177 1.95266C7.50434 1.80796 6.75034 1.88222 6.06512 2.16605C5.37989 2.44988 4.79422 2.93053 4.38217 3.54721C3.97011 4.1639 3.75018 4.88892 3.75018 5.6306C3.75121 6.62484 4.14663 7.57807 4.84967 8.28111C5.55271 8.98415 6.50594 9.37957 7.50018 9.3806Z" fill="#262626"/>
</svg>
