<svg width="20" height="20" viewBox="0 0 20 20" fill="none" xmlns="http://www.w3.org/2000/svg">
<path d="M19.2306 5.11409L19.2252 5.10784L17.3556 3.26956C17.0633 2.97731 16.6671 2.81281 16.2537 2.81208C15.8403 2.81134 15.4435 2.97444 15.1502 3.26565L8.11891 10.2055L5.47359 7.63909C5.17998 7.34866 4.78333 7.18629 4.37035 7.18746C3.95737 7.18863 3.56165 7.35325 3.26969 7.64534L1.39469 9.52034C1.10224 9.81329 0.937988 10.2103 0.937988 10.6242C0.937988 11.0382 1.10224 11.4352 1.39469 11.7282L6.99 17.3532C7.1351 17.4983 7.30738 17.6135 7.49699 17.692C7.6866 17.7706 7.88983 17.811 8.09508 17.811C8.30032 17.811 8.50355 17.7706 8.69317 17.692C8.88278 17.6135 9.05506 17.4983 9.20016 17.3532L19.2306 7.32346C19.5235 7.03045 19.6881 6.6331 19.6881 6.21878C19.6881 5.80446 19.5235 5.4071 19.2306 5.11409ZM8.09469 15.8071L2.94078 10.625L4.37516 9.18831L7.47281 12.1875C7.6488 12.358 7.88454 12.4528 8.12955 12.4516C8.37457 12.4505 8.60939 12.3534 8.78375 12.1813L16.2502 4.81331L17.6814 6.21956L8.09469 15.8071Z" fill="#262626"/>
</svg>
